<svg enable-background="new 0 0 1024 1024" height="1024" image-rendering="optimizeSpeed" viewBox="0 0 1024 1024" width="1024" xmlns="http://www.w3.org/2000/svg" xmlns:xlink="http://www.w3.org/1999/xlink"><linearGradient id="a" gradientUnits="userSpaceOnUse" x1="572.439" x2="674.453" y1="662.647" y2="499.526"><stop offset="0" stop-color="#eef7fd"/><stop offset="1" stop-color="#fff"/></linearGradient><mask id="b"><path d="m958.55 354.65c-.3-.75-.6-1.65-.9-2.55-6.45-18.25-14.15-36.05-23.15-53.65-3.8-7.4-7.95-14.95-12.3-22.4-20.3-34.5-45.8-67.2-76.35-97.75-72.45-72.45-156.75-116.45-252.8-131.9-.3-.05-.6-.1-.85-.15-16.25-2.6-32.8-4.4-50.05-5.35-9.7-.55-19.85-.85-30.1-.85-9.35 0-18.6.25-27.9.75-118.35 6.1-220.3 51.95-305.85 137.5-56.5 56.5-95.65 120.15-117.45 190.7q-20.8 67.2-20.8 143.05c0 130.35 46.1 241.65 138.25 333.8 28.4 28.4 58.65 52.45 89.8 71.55 3.35 2 6.25 3.75 9.15 5.45 19.75 11.55 39.65 21.25 60.15 29.3 6.45 2.6 12.6 4.85 18.8 6.95 16.2 5.55 32.75 10.15 49 13.75 25.95 5.6 52.05 9.1 78.95 10.5h.4c8.5.45 16.6.7 24.5.7h3c10.3 0 20.5-.3 30.1-.8 2.5-.15 4.75-.3 6.95-.45 20.2-1.45 39.9-4.05 58.7-7.7 7.95-1.55 15.8-3.3 23.4-5.15 30.45-7.65 59.55-18.3 87.25-31.8 12.8-6.3 25.35-13.2 37.6-20.7 3.05-1.9 6.05-3.8 9.05-5.75 14.65-9.5 28.65-19.75 42.25-30.9 13.25-10.9 26.05-22.5 38.5-34.95 11.85-11.85 22.95-24.05 33.3-36.5 32-38.75 56.7-80.5 74.05-125.3 3.95-10.25 7.55-20.65 10.75-31.15 2.2-7.3 4.25-14.7 6.15-22.3 7.85-31.85 12.45-65.25 13.65-100.05.2-6.05.3-12.25.3-18.5 0-.65 0-1.35 0-2 0-.35 0-.65 0-1-.2-40.65-4.95-79.5-14.3-117-1.1-4.35-2.35-9-3.65-13.6-2.25-7.85-4.75-15.8-7.55-23.8z" fill="#fff" image-rendering="optimizeSpeed"/></mask><path d="m969.65 351.3q-8.6-20.85-19.4-40.85c-4.05-7.55-8.35-15.05-12.9-22.4-19.55-31.7-43.4-61.65-71.55-89.8-92.15-92.15-203.45-138.25-333.8-138.25s-241.6 46.1-333.75 138.25-138.25 203.4-138.25 333.75 46.1 241.65 138.25 333.8 203.4 138.2 333.75 138.2 241.65-46.05 333.8-138.2c50.75-50.8 87.55-107.4 110.35-169.75 18.55-50.85 27.85-105.5 27.85-164.05 0-44.9-5.45-87.55-16.4-127.95-1.25-4.55-2.55-9.1-3.9-13.6-4.1-13.3-8.8-26.35-14.05-39.15z" fill-opacity=".098039"/><path d="m969.75 392.05c-1.1-4.35-2.35-9-3.65-13.6-2.25-7.85-4.75-15.8-7.55-23.8-.3-.75-.6-1.65-.9-2.55-6.45-18.25-14.15-36.05-23.15-53.65-3.8-7.4-7.95-14.95-12.3-22.4-20.3-34.5-45.8-67.2-76.35-97.75-72.45-72.45-156.75-116.45-252.8-131.9-.3-.05-.6-.1-.85-.15-16.25-2.6-32.8-4.4-50.05-5.35-9.7-.55-19.85-.85-30.1-.85-9.35 0-18.6.25-27.9.75-118.35 6.1-220.3 51.95-305.85 137.5-56.5 56.5-95.65 120.15-117.45 190.7q-20.8 67.2-20.8 143.05c0 130.35 46.1 241.65 138.25 333.8 28.4 28.4 58.65 52.45 89.8 71.55 3.35 2 6.25 3.75 9.15 5.45 19.75 11.55 39.65 21.25 60.15 29.3 6.45 2.6 12.6 4.85 18.8 6.95 16.2 5.55 32.75 10.15 49 13.75 25.95 5.6 52.05 9.1 78.95 10.5h.4c8.5.45 16.6.7 24.5.7h3c10.3 0 20.5-.3 30.1-.8 2.5-.15 4.75-.3 6.95-.45 20.2-1.45 39.9-4.05 58.7-7.7 7.95-1.55 15.8-3.3 23.4-5.15 17.35-4.35 34.3-9.7 50.8-15.95 12.4-4.75 24.55-10.05 36.45-15.85 12.8-6.3 25.35-13.2 37.6-20.7 3.05-1.9 6.05-3.8 9.05-5.75 14.65-9.5 28.65-19.75 42.25-30.9 13.25-10.9 26.05-22.5 38.5-34.95 11.85-11.85 22.95-24.05 33.3-36.5 32-38.75 56.7-80.5 74.05-125.3 3.95-10.25 7.55-20.65 10.75-31.15 2.2-7.3 4.25-14.7 6.15-22.3 7.85-31.85 12.45-65.25 13.65-100.05.2-6.05.3-12.25.3-18.5 0-.65 0-1.35 0-2 0-.35 0-.65 0-1-.2-40.65-4.95-79.5-14.3-117z" fill="#73aad1"/><path d="m953.2 684.05c3.95-10.25 7.55-20.65 10.75-31.15 2.2-7.3 4.25-14.7 6.15-22.3 7.85-31.85 12.45-65.25 13.65-100.05q.3-9.2.3-18.5c0-.65 0-1.35 0-2 0-.35 0-.65 0-1l-212-212-528 203 182.7 182.7 6.3 22.3 248.95 248.95c12.4-4.75 24.55-10.05 36.45-15.85 12.8-6.3 25.35-13.2 37.6-20.7 3.05-1.9 6.05-3.8 9.05-5.75 14.65-9.5 28.65-19.75 42.25-30.9 13.25-10.9 26.05-22.5 38.5-34.95 11.85-11.85 22.95-24.05 33.3-36.5 32-38.75 56.7-80.5 74.05-125.3z" fill-opacity=".2"/><g mask="url(#b)"><path d="m160.65 378.2c-13.7 0-25.35 4.8-34.95 14.45s-14.4 21.3-14.4 34.9l.15 4.15c-7.5 3.45-13.5 8.7-18 15.75-4.6 7.05-6.9 14.8-6.9 23.3 0 11.85 4.25 22.05 12.65 30.55 8.5 8.4 18.7 12.65 30.55 12.65h104.85c10.25 0 19-3.65 26.25-10.95 7.2-7.15 10.75-15.9 10.75-26.1 0-8.7-2.7-16.4-8.05-23.1-5.4-6.7-12.25-11-20.55-12.9 2.7-4.05 4-8.5 4-13.35 0-6.8-2.4-12.6-7.2-17.45q-7.3-7.25-17.5-7.25c-6.2 0-11.55 1.95-16.05 5.95-3.75-9.1-9.75-16.5-18-22.15-8.3-5.65-17.5-8.45-27.6-8.45zm267.8-294.7c0-9.75-3.45-18.1-10.35-25-6.95-7-15.35-10.45-25.1-10.45-8.85 0-16.55 2.85-23 8.55-5.35-13.05-13.95-23.65-25.85-31.8-11.85-8.05-25.05-12.05-39.55-12.05-19.6 0-36.3 6.85-50.1 20.65-13.75 13.9-20.65 30.6-20.65 50.1l.2 5.95c-10.7 4.95-19.3 12.5-25.8 22.6-6.6 10.05-9.85 21.2-9.85 33.35 0 17.05 6.05 31.65 18.1 43.85 12.2 12.05 26.8 18.1 43.8 18.1h150.35c14.7 0 27.25-5.2 37.65-15.65 10.3-10.3 15.45-22.8 15.45-37.45 0-12.45-3.85-23.5-11.6-33.15-7.75-9.6-17.55-15.75-29.4-18.5 3.8-5.8 5.7-12.2 5.7-19.1zm458.75 447.4c-15.6-10.6-33-15.85-52.1-15.85-25.8 0-47.8 9-65.95 27.2-18.1 18.3-27.2 40.3-27.2 65.95l.25 7.85c-14.1 6.5-25.4 16.45-34 29.75-8.65 13.25-12.95 27.95-12.95 43.95 0 22.45 7.95 41.7 23.85 57.75 16.05 15.85 35.3 23.85 57.7 23.85h198c19.35 0 35.9-6.85 49.6-20.65 13.55-13.55 20.35-30 20.35-49.3 0-16.4-5.1-30.95-15.3-43.65-10.2-12.65-23.1-20.75-38.7-24.4 5-7.6 7.5-16.05 7.5-25.15 0-12.85-4.55-23.8-13.65-32.9-9.15-9.25-20.2-13.75-33.05-13.75-11.65 0-21.8 3.75-30.3 11.25-7.05-17.2-18.35-31.15-34.05-41.9z" fill="#fff" fill-opacity=".298039"/></g><path d="m703.425 362.164-33.868-8.773-288.905 180.565 46.723 153.429q2.856 7.549 5.509 16.118 2.856 4.897 13.262 4.897l229.123-269.521z" fill="#c5daeb"/><path d="m533.878 533.14-77.531 48.967-10.201 122.213v4.08q8.161 0 14.281-3.672 3.469-2.041 10.202-8.57l146.9-142.819z" fill="#a3c9df"/><path d="m776.467 329.928c8.161-32.849-12.649-47.743-34.072-37.95l-471.714 181.79c-32.236 12.853-32.032 31.012-5.917 38.969l120.989 37.745 280.335-176.892c13.262-7.957 25.3-3.673 15.302 5.304l-227.083 204.845 197.499 145.676c22.443 12.446 38.765 6.121 44.274-20.811z" fill="url(#a)"/></svg>